<svg xmlns="http://www.w3.org/2000/svg" viewBox="0 0 24 24" fill="none">
  <path d="M7 2H17C18.1046 2 19 2.89543 19 4V20C19 21.1046 18.1046 22 17 22H7C5.89543 22 5 21.1046 5 20V4C5 2.89543 5.89543 2 7 2Z" fill="#2563EB"/>
  <path d="M17 2L19 4V20C19 21.1046 18.1046 22 17 22H7C5.89543 22 5 21.1046 5 20V4C5 2.89543 5.89543 2 7 2H17ZM15 2H17V4H15V2Z" fill="#1D4ED8"/>
  <path d="M15 2V4H17L15 2Z" fill="#60A5FA"/>
  <text x="12" y="16" font-family="Arial, sans-serif" font-size="5" font-weight="bold" text-anchor="middle" fill="white">.GED</text>
</svg>